{"title":"The.Pillars.of.the.Earth.Part.VI.HDTV.XviD-iHD","uid":5784307,"size":613816601,"categoryP":"video","categoryS":"tv_shows","magnet":"?xt=urn:btih:c62a0bbcc29b95bc203503a4ba52d602e7ff6891&amp;dn=The.Pillars.of.the.Earth.Part.VI.HDTV.XviD-iHD&amp;tr=udp%3A%2F%2Ftracker.openbittorrent.com%3A80&amp;tr=udp%3A%2F%2Fopen.demonii.com%3A1337&amp;tr=udp%3A%2F%2Ftracker.coppersurfer.tk%3A6969&amp;tr=udp%3A%2F%2Fexodus.desync.com%3A6969","seeders":0,"leechers":0,"uploader":"poppedtart","files":-1,"time":1282540206,"description":"General\nComplete name                    : The.Pillars.of.the.Earth.Part.VI.HDTV.XviD-iHD.avi\nFormat                           : AVI\nFormat/Info                      : Audio Video Interleave\nFile size                        : 585 MiB\nDuration                         : 51mn 52s\nOverall bit rate                 : 1 578 Kbps\nWriting application              : VirtualDubMod 1.5.10.3 | www.virtualdub-fr.org || (build 2550/release)\nWriting library                  : VirtualDubMod build 2550/release\n\nVideo\nFormat                           : MPEG-4 Visual\nFormat profile                   : Streaming Video@L1\nFormat settings, BVOP            : Yes\nFormat settings, QPel            : No\nFormat settings, GMC             : No warppoints\nFormat settings, Matrix          : Default (H.263)\nCodec ID                         : XVID\nCodec ID/Hint                    : XviD\nDuration                         : 51mn 52s\nBit rate                         : 1 337 Kbps\nWidth                            : 640 pixels\nHeight                           : 360 pixels\nDisplay aspect ratio             : 16/9\nFrame rate                       : 29.970 fps\nResolution                       : 24 bits\nColorimetry                      : 4:2:0\nScan type                        : Progressive\nBits/(Pixel*Frame)               : 0.194\nStream size                      : 496 MiB (85%)\nWriting library                  : XviD 1.2.1 (UTC 2008-12-04)\n\nAudio\nFormat                           : MPEG Audio\nFormat version                   : Version 1\nFormat profile                   : Layer 3\nCodec ID                         : 55\nCodec ID/Hint                    : MP3\nDuration                         : 51mn 52s\nBit rate mode                    : Variable\nBit rate                         : 227 Kbps\nMinimum bit rate                 : 32.0 Kbps\nChannel(s)                       : 2 channels\nSampling rate                    : 48.0 KHz\nResolution                       : 16 bits\nStream size                      : 84.3 MiB (14%)\nAlignment                        : Aligned on interleaves\nInterleave, duration             : 24 ms (0.72 video frame)\nInterleave, preload duration     : 152 ms\nWriting library                  : LAME3.98r\nEncoding settings                : -m j -V 0 -q 0 -lowpass 19.5 --vbr-new -b 32\n\n\n\n","torrent":{"xt":"urn:btih:c62a0bbcc29b95bc203503a4ba52d602e7ff6891","amp;dn":"The.Pillars.of.the.Earth.Part.VI.HDTV.XviD-iHD","amp;tr":["udp%3A%2F%2Ftracker.openbittorrent.com%3A80","udp%3A%2F%2Fopen.demonii.com%3A1337","udp%3A%2F%2Ftracker.coppersurfer.tk%3A6969","udp%3A%2F%2Fexodus.desync.com%3A6969"],"infoHash":"c62a0bbcc29b95bc203503a4ba52d602e7ff6891","infoHashBuffer":{"type":"Buffer","data":[198,42,11,188,194,155,149,188,32,53,3,164,186,82,214,2,231,255,104,145]},"announce":[],"urlList":[]}}